PathFileType	4	(X/Y/Z)	C:/Users/beibeiliu/ov580/test_trc/User3\sequence.28_training_dense_right.trc
DataRate	CameraRate	NumFrames	NumMarkers	Units	OrigDataRate	OrigDataStartFrame	OrigNumFrames
120	120	22	19	mm	120	26	100
Frame#	Time	ThumbCMC			ThumbMCP			ThumbIP			ThumbTip			IndexMCP			IndexPIP			IndexTip			MiddleMCP			MiddlePIP			MiddleTip			RingMCP			RingPIP			RingTip			PinkyMCP			PinkyPIP			PinkyTip			BackHand1			BackHand2			BackHand3	
		X0	Y0	Z0	X1	Y1	Z1	X2	Y2	Z2	X3	Y3	Z3	X4	Y4	Z4	X5	Y5	Z5	X6	Y6	Z6	X7	Y7	Z7	X8	Y8	Z8	X9	Y9	Z9	X10	Y10	Z10	X11	Y11	Z11	X12	Y12	Z12	X13	Y13	Z13	X14	Y14	Z14	X15	Y15	Z15	X16	Y16	Z16	X17	Y17	Z17	X18	Y18	Z18	
25	0.208333	233.067	-20.7953	2.91618	245.4	-8.74825	-17.0946	254.897	3.12609	-37.5853	259.813	15.8494	-58.8659	205.498	-6.14836	-67.0529	203.231	15.3988	-86.9486	198.038	40.5274	-98.5515	176.151	-15.0311	-72.3679	171.041	-3.15192	-92.3652	166.493	16.3331	-123.032	155.54	-11.1054	-57.2581	146.548	6.81546	-77.4534	142.007	27.1824	-88.394	138.036	-15.7414	-35.9701	125.367	-6.4366	-48.6688	110.984	6.41028	-64.8019	170.655	-43.5702	-10.8376	175.613	-52.671	15.0522	205.644	-43.8629	-4.77973	
26	0.216667	228.83	-21.9189	4.75641	242.696	-10.3389	-15.3852	256.703	2.36335	-37.8291	262.664	15.1971	-57.7696	206.079	-11.683	-66.4977	202.677	3.28546	-89.5301	204.175	26.6646	-108.333	177.952	-18.4042	-68.7135	169.24	-3.16437	-94.3974	162.275	11.9131	-118.048	158.091	-6.88399	-58.4086	150.7	16.5429	-71.7666	143.575	45.2307	-73.8675	136.835	-14.5091	-36.8369	129.354	-2.60195	-53.2597	116.934	11.4506	-65.5837	172.003	-42.6533	-13.5751	173.304	-52.1488	15.3632	205.47	-46.7077	-3.53335	
27	0.225	231.851	-23.2602	8.83049	245.939	-10.2835	-12.7993	256.151	3.40934	-41.6294	263.278	15.8496	-55.5991	203.669	-14.1192	-67.9949	205.598	-2.02381	-89.954	205.507	15.3919	-113.476	177.148	-17.1959	-69.0642	168.709	-2.96569	-92.4032	164.79	18.4602	-119.04	156.359	-7.48286	-51.619	152.827	20.1429	-65.0464	147.035	50.9896	-59.7084	138.92	-15.9135	-35.8583	125.57	-4.36343	-48.2639	118.391	12.7415	-67.9664	170.557	-43.9558	-14.062	177.892	-55.2044	17.8342	204.831	-45.1106	-6.45637	
28	0.233333	230.225	-22.608	7.26861	244.884	-10.5401	-16.046	254.291	2.05965	-37.0062	262.243	14.9166	-55.5444	207.658	-16.8102	-69.1912	208.636	-7.3062	-90.0244	206.861	7.68418	-116.674	178.077	-14.5719	-69.2952	173.623	3.40026	-89.2647	166.019	32.3113	-108.753	158.067	-4.72135	-53.4278	151.187	20.3786	-62.4877	151.117	49.3204	-56.6725	140.222	-16.383	-35.9179	128.039	-5.51622	-51.2507	115.271	7.04739	-64.1488	173.24	-45.6661	-11.5243	175.931	-54.8085	18.9777	207.631	-44.7797	-6.30218	
29	0.241667	228.367	-24.3853	10.2514	243.838	-10.793	-11.551	256.933	2.58177	-37.9665	258.443	15.1206	-57.9181	204.144	-17.9423	-69.3444	207.182	-10.0398	-89.7782	206.232	1.51068	-113.219	176.645	-9.30132	-68.3338	171.987	16.8692	-82.8343	171.965	53.2318	-86.7562	158.051	-9.5022	-52.6386	152.41	16.9886	-67.4516	151.627	46.9175	-66.0516	140.931	-18.7684	-34.4284	125.553	-8.67605	-51.3707	112.312	1.1754	-63.9191	171.506	-45.8888	-12.6044	173.587	-56.4301	18.3729	208.236	-45.9887	-1.88754	
30	0.25	229.031	-24.0801	7.98175	243.769	-10.1861	-13.0699	252.592	4.65787	-34.754	253.853	18.1688	-52.7779	208.267	-17.6314	-66.5393	204.426	-6.52613	-90.8148	204.817	5.63209	-111.46	177.339	-6.647	-65.2756	173.044	23.6316	-77.0716	171.546	57.5602	-67.167	157.445	-13.5748	-56.6227	152.703	8.2024	-73.7473	145.27	40.4378	-75.625	140.919	-20.1228	-36.0859	127.626	-11.5153	-52.7919	112.824	-3.40486	-65.4805	169.992	-46.0477	-10.959	173.978	-54.4844	16.1198	205.948	-47.5361	-1.84112	
31	0.258333	227.473	-23.5736	10.1718	242.02	-6.26455	-14.0026	249.828	8.88043	-34.1587	249.622	25.8036	-53.9322	203.295	-16.1571	-63.8161	204.682	1.2866	-89.3346	200.38	20.5397	-106.894	175.858	-6.87228	-66.1447	171.028	22.8493	-75.0544	173.624	59.158	-59.3812	158.417	-16.7666	-57.726	149.251	2.58845	-75.943	146.774	29.0845	-83.4027	138.088	-21.6714	-33.1785	125.987	-13.4778	-50.1422	112.52	-1.46663	-66.903	171.291	-45.4451	-11.3876	175.964	-57.2913	17.869	201.97	-47.482	-1.59035	
32	0.266667	230.089	-22.463	13.7581	241.785	-1.46955	-12.1193	248.174	16.2736	-34.4268	238.959	33.5006	-51.448	204.179	-13.763	-61.8456	206.118	11.3733	-85.8964	201.415	33.8894	-93.2489	177.889	-13.3093	-63.654	174.142	17.9453	-80.4365	169.322	51.6574	-64.6634	158.834	-21.7149	-54.5949	150.552	-4.26859	-77.0199	143.343	27.4617	-82.1008	140.781	-23.0388	-31.2601	122.09	-13.37	-47.3926	114.603	9.57619	-63.7102	169.069	-47.2942	-8.44572	170.955	-55.1142	18.4428	201.637	-46.8387	-3.26384	
33	0.275	227.482	-18.2323	13.4351	239.303	4.64659	-5.93576	240.088	25.9338	-28.1592	224.123	42.6881	-47.5922	206.718	-9.6176	-64.3632	203.861	13.7853	-82.0694	195.842	42.0462	-80.6913	175.651	-20.5243	-62.6482	171.835	3.71586	-88.0203	169.305	39.7887	-81.5906	157.325	-24.0509	-56.059	148.103	-6.41239	-76.3081	144.023	24.0686	-74.5167	139.399	-21.9276	-33.0027	124.544	-6.71798	-48.7388	123.998	25.1615	-53.2549	171.085	-47.4007	-8.20161	174.277	-54.2154	17.0974	206.853	-45.2084	1.11718	
34	0.283333	226.03	-16.5172	11.2121	235.261	10.3622	-9.58587	227.511	28.7807	-26.4411	206.306	44.2986	-43.0699	203.51	-14.1275	-62.4372	206.173	14.1549	-83.9128	199.523	39.8899	-77.268	182.636	-27.3293	-67.4769	174.448	-9.76531	-91.3216	168.229	29.9643	-90.5496	161.771	-25.3588	-54.7722	150.592	-6.04584	-73.152	155.202	28.7045	-63.0434	142.138	-18.3489	-34.5876	131.718	3.94878	-46.637	142.127	30.2792	-41.2453	171.007	-46.3898	-5.54257	176.286	-54.7008	21.1879	206.62	-45.6144	-1.19543	
35	0.291667	225.301	-17.5764	14.2137	229.189	12.6371	-11.3621	220.038	33.5203	-28.8828	193.585	38.938	-36.6893	209.347	-17.9374	-65.8931	204.832	3.63687	-84.8874	203.968	34.4352	-81.591	181.227	-31.6841	-67.9746	174.311	-14.0381	-93.5141	166.87	22.1153	-95.7396	159.091	-22.9378	-52.9926	154.589	4.80112	-70.4749	159.647	30.8625	-47.532	143.989	-13.9849	-37.7753	139.506	8.3351	-44.2145	152.984	31.8412	-28.6894	174.647	-49.2961	-8.09646	176.356	-56.9713	22.8606	204.42	-48.8845	-0.153929	
36	0.3	223.855	-16.2145	10.3873	224.317	12.8427	-7.64877	209.746	34.1677	-31.9973	185.611	39.8796	-37.6222	206.66	-22.6422	-64.2607	210.776	-2.6207	-88.4464	203.631	25.9692	-90.1361	184.655	-31.0999	-67.7555	175.777	-14.5845	-92.0437	172.259	25.2067	-97.1121	161.505	-19.1767	-53.1699	155.927	11.5756	-63.9665	165.633	31.043	-39.5055	143.969	-13.8708	-33.4328	142.375	17.0046	-40.9913	155.306	32.6247	-27.5258	173.897	-47.6977	-7.61589	177.088	-56.7014	17.4258	205.882	-49.6642	2.66039	
37	0.308333	224.43	-14.704	15.0105	224.629	16.5364	-7.11691	208.995	37.3197	-31.6712	185.511	43.2227	-39.8574	211.68	-23.5003	-61.6862	213.151	-9.71008	-89.05	214.408	19.8842	-100.219	185.673	-29.3223	-67.5739	177.257	-9.65499	-91.5991	172.727	28.5733	-92.3312	164.433	-18.8732	-53.586	159.595	13.6733	-63.1324	168.173	33.2993	-41.4615	145.661	-13.7172	-35.8062	144.383	14.4056	-43.0812	158.784	33.9202	-28.6163	175.912	-50.257	-6.81756	176.414	-57.8198	18.0319	208.406	-47.877	-2.0158	
38	0.316667	234.717	-8.92147	14.6215	230.678	21.2955	-7.43696	217.348	41.5032	-31.4729	199.331	51.2178	-41.2859	223.901	-20.5251	-65.6376	227.98	-8.31901	-91.3321	223.796	14.5391	-108.462	194.789	-24.2802	-67.2012	191.532	-2.47466	-91.0075	184.443	36.7323	-90.8374	177.339	-16.9958	-58.2493	166.993	7.3738	-68.9078	172.051	35.8343	-51.1262	158.017	-19.3828	-36.8345	148.611	2.60512	-48.9418	157.191	28.8011	-42.4388	188.919	-46.8849	-7.18801	192.416	-54.6378	17.3598	220.544	-45.5186	-1.16319	
39	0.325	251.982	11.8539	13.4605	237.772	37.0006	-12.0276	223.412	52.1706	-32.282	207.999	62.4589	-43.7825	246.77	-4.22057	-60.7205	249.097	5.622	-89.1761	242.83	23.348	-111.542	221.832	-11.1871	-71.8272	208.132	9.99072	-93.3885	191.383	42.6598	-92.8265	198.121	-16.3785	-62.2649	187.15	4.93013	-78.079	177.634	35.17	-69.4553	182.687	-22.2437	-42.6926	165.258	-6.2838	-58.1461	160.535	21.7957	-57.756	213.452	-40.8927	-10.2048	216.862	-46.7957	19.2314	247.26	-29.2201	-1.82666	
40	0.333333	254.693	43.6968	10.8753	232.797	61.5922	-9.28221	214.953	73.6498	-30.9479	198.597	74.7654	-47.8445	262.432	33.037	-62.6882	256.63	42.869	-88.8063	245.296	57.4432	-112.688	243.8	11.1063	-72.347	231.196	26.44	-95.2275	201.898	48.1414	-106.629	226.972	-3.66656	-62.4051	212.397	9.08395	-86.0791	188.298	25.8102	-92.3204	207.872	-17.848	-46.9975	188.879	-11.0321	-63.85	170.675	4.64495	-71.8086	248.032	-16.1992	-14.5047	251.959	-24.1391	14.2435	267.09	5.24997	-0.88914	
41	0.341667	236.091	64.5272	13.2881	209.56	75.7208	-6.83089	191.894	77.9172	-33.6696	175.54	77.4947	-52.9276	253.877	74.3864	-59.6551	245.217	84.8204	-84.665	233.603	95.6246	-103.76	252.994	49.611	-75.1122	239.27	55.317	-99.9185	210.807	63.855	-120.297	241.4	24.7288	-70.6955	229.645	31.2705	-91.4093	199.678	35.8527	-107.218	227.496	1.26425	-54.0819	208.114	5.78316	-74.4562	188.195	6.38439	-82.9244	262.511	13.239	-16.4759	262.945	7.02591	7.95112	267.604	44.2722	1.42438	
42	0.35	205.339	70.8217	14.3062	180.638	71.9381	-9.17472	164.707	74.7029	-38.6245	154.587	71.8685	-61.3153	225.228	105.218	-52.4745	216.837	117.137	-70.9363	205.063	127.727	-91.4238	242.815	86.7244	-66.81	236.518	95.5243	-89.7969	217.407	102.983	-119.111	237.951	62.3756	-66.6339	227.699	64.4632	-93.3078	207.392	63.7308	-110.892	233.736	29.2527	-61.6844	218.801	26.5657	-79.3403	196.763	24.5008	-93.6035	256.005	47.3634	-14.4846	257.745	35.2603	7.92043	242.987	72.1403	5.33583	
43	0.358333	176.783	66.3615	14.3096	160.768	63.524	-15.4286	148.979	65.2953	-43.5201	145.418	63.021	-66.2968	198.846	114.354	-38.203	186.416	135.984	-59.3586	178.354	145.922	-76.8986	220.836	104.77	-50.5869	216.441	122.701	-76.0004	207.635	131.71	-104.628	225.063	80.6369	-60.1353	213.538	83.1033	-89.7603	199.684	73.7007	-110.448	228.555	50.0371	-62.7456	213.526	47.2211	-79.4126	196.179	38.2099	-94.5132	238.164	64.8983	-7.43045	241.328	50.8164	14.1036	217.804	75.7356	14.2898	
44	0.366667	162.72	52.1452	10.0056	146.707	48.8872	-17.1163	137.424	50.0722	-46.3262	135.319	48.8982	-71.0829	175.916	111.246	-35.4842	166.23	126.14	-51.2132	161.867	140.05	-74.0343	200.286	102.537	-48.8617	198.438	115.314	-74.897	188.694	125.123	-103.94	207.184	75.3399	-61.184	196.409	74.2219	-87.1868	184.081	61.4183	-106.865	214.895	51.3114	-56.2793	204.443	42.4832	-77.6715	188.836	36.7075	-92.2972	223.185	65.1478	-5.60358	224.17	44.0146	21.0269	195.621	69.5453	18.9987	
45	0.375	151.039	36.1737	13.6981	135.157	32.3357	-17.0928	124.526	32.4273	-45.566	122.531	29.565	-70.4261	165.007	88.4053	-35.349	151.813	104.888	-54.6921	146.139	119.412	-77.4107	181.945	80.5833	-52.391	173.994	86.0125	-77.9968	163.645	83.818	-111.037	192.554	54.7054	-54.9816	181.192	47.6597	-83.4145	169.023	34.1015	-102.831	208.493	34.0497	-55.223	198.702	28.9636	-70.6413	190.554	17.0095	-93.1027	208.038	50.9741	-0.663738	215.907	33.575	25.9675	180.573	59.6169	19.0776	
46	0.383333	137.848	23.6802	19.2149	125.308	16.7125	-9.66645	113.856	13.6591	-41.5182	112.968	8.26408	-59.2769	148.585	68.8002	-38.1633	141.969	78.6117	-61.5532	135.57	89.3587	-86.8241	166.834	52.7798	-55.0076	153.465	48.493	-81.6878	140.547	35.217	-107.802	181.545	35.7979	-52.6612	170.772	26.4569	-79.2763	159.757	11.9957	-99.1864	203.935	18.4376	-50.4754	197.703	11.0196	-72.0654	190.226	7.17474	-89.5698	201.33	36.4797	-2.63673	205.836	26.3328	26.0027	173.502	45.613	20.1555	
